Coordinates
version=1
nRows=13
nColumns=22
inDegrees=yes

Units are S.I. units (second, meters, Newtons, ...)
If the header above contains a line with 'inDegrees', this indicates whether rotational values are in degrees (yes) or radians (no).

endheader
time	pelvis_tilt	pelvis_list	pelvis_rotation	pelvis_tx	pelvis_ty	pelvis_tz	hip_flexion_r	hip_adduction_r	hip_rotation_r	knee_angle_r	ankle_angle_r	subtalar_angle_r	hip_flexion_l	hip_adduction_l	hip_rotation_l	knee_angle_l	ankle_angle_l	subtalar_angle_l	lumbar_extension	lumbar_bending	lumbar_rotation
      4.24000000	     -7.79799624	     -3.89036306	      2.78571967	     -0.84091977	      0.95957507	     -0.24366992	      4.44858754	      4.99745807	     -4.98137621	    -20.66196604	     16.62592373	      4.24540236	     23.92464879	     -1.69738002	      2.46993638	    -16.05409750	      5.35470559	     -6.31402503	      1.34784723	      3.62313703	      0.35522216
      4.25000000	     -7.89002177	     -3.90843544	      2.59754579	     -0.84754724	      0.95924090	     -0.24166443	      4.77632917	      5.15843975	     -5.13608186	    -20.32772236	     16.84718066	      3.69222992	     24.28713554	     -1.87371470	      2.34764392	    -15.85062147	      5.56309898	     -6.28583278	      1.23768238	      3.64662827	      0.49191648
      4.26000000	     -7.99771698	     -3.94683695	      2.40704687	     -0.85416504	      0.95894129	     -0.23968053	      5.14157804	      5.33456564	     -5.20059647	    -20.03392774	     17.01892565	      3.22991317	     24.65119962	     -2.07783669	      2.19186395	    -15.62475436	      5.86002746	     -6.23687943	      1.14744307	      3.69083014	      0.63611399
      4.27000000	     -8.10885851	     -4.00630395	      2.22827949	     -0.86073724	      0.95869657	     -0.23774384	      5.52311989	      5.52728415	     -5.20264044	    -19.76910421	     17.14304426	      2.79974058	     25.01194429	     -2.30619812	      1.99557670	    -15.39121188	      6.24872753	     -6.14733836	      1.06651009	      3.75857517	      0.74345526
      4.28000000	     -8.22262462	     -4.08892170	      2.06994651	     -0.86724042	      0.95852014	     -0.23588354	      5.92289229	      5.73816205	     -5.15457165	    -19.53920788	     17.20761685	      2.42264643	     25.35864176	     -2.55260569	      1.79494435	    -15.13453517	      6.71935055	     -6.02209977	      0.99746054	      3.85173245	      0.84039968
      4.29000000	     -8.28887053	     -4.20610370	      1.93212486	     -0.87361051	      0.95847804	     -0.23410528	      6.27953318	      5.97876670	     -5.08459577	    -19.33416683	     17.25575880	      2.20880359	     25.66007750	     -2.83525635	      1.52511954	    -14.89953232	      7.24392351	     -5.95302377	      0.88724404	      3.98823522	      0.89813849
      4.30000000	     -8.41991858	     -4.33745699	      1.84744295	     -0.87989914	      0.95844946	     -0.23246251	      6.73929705	      6.22225475	     -5.06216965	    -19.19011220	     17.18404019	      1.71469181	     26.02357185	     -3.10089463	      1.32163134	    -14.66231415	      7.79915212	     -5.64621820	      0.86554426	      4.13734376	      0.89614968
      4.31000000	     -8.50264189	     -4.49823116	      1.78006596	     -0.88599419	      0.95860526	     -0.23092073	      7.14911245	      6.49190689	     -5.00917895	    -19.06137460	     17.05051479	      1.46710409	     26.32900637	     -3.39112098	      1.08071681	    -14.44628175	      8.33032295	     -5.47282340	      0.80676958	      4.32455517	      0.87774093
      4.32000000	     -8.52526176	     -4.66955706	      1.75381958	     -0.89187025	      0.95893585	     -0.22952925	      7.50329509	      6.75949347	     -4.99516902	    -18.96485833	     16.91480234	      1.32742844	     26.58446479	     -3.67618013	      0.79083190	    -14.29575408	      8.84384443	     -5.38097063	      0.70020360	      4.52981719	      0.80498396
      4.33000000	     -8.57829001	     -4.84306607	      1.78207771	     -0.89759484	      0.95933280	     -0.22829931	      7.91397589	      7.01465499	     -5.02686657	    -18.91606353	     16.69614424	      1.12803232	     26.88657098	     -3.92986485	      0.53986829	    -14.21673181	      9.28100538	     -5.19909582	      0.64721884	      4.73681307	      0.68157051
      4.34000000	     -8.63678421	     -4.96515853	      1.87245641	     -0.90312634	      0.95982877	     -0.22727140	      8.35185552	      7.19326185	     -5.14228799	    -18.91784459	     16.40925722	      0.82788597	     27.18892949	     -4.09394190	      0.32640998	    -14.19958554	      9.59335070	     -4.88254825	      0.62113003	      4.88722092	      0.49897419
      4.35000000	     -8.61453159	     -5.07761948	      1.98778603	     -0.90841008	      0.96049967	     -0.22635138	      8.68710896	      7.35774821	     -5.24288028	    -18.91437076	     16.15255695	      0.70710967	     27.42294959	     -4.24050448	      0.08106360	    -14.30699671	      9.80006924	     -4.74683202	      0.52306297	      5.02890206	      0.29879310
      4.36000000	     -8.58582819	     -5.13646368	      2.15748179	     -0.91350601	      0.96123538	     -0.22562353	      9.02393264	      7.44417753	     -5.41413443	    -18.94426759	     15.88235506	      0.57406064	     27.65537946	     -4.29850033	     -0.10883753	    -14.52747170	      9.86408049	     -4.57984519	      0.43536604	      5.11579194	      0.04722841
